<svg width="31" height="20" viewBox="0 0 31 20" fill="none" xmlns="http://www.w3.org/2000/svg">
<path d="M9.40786 0.664673C10.9276 0.664673 12.1702 0.916178 13.1415 1.41071C14.1128 1.90807 14.884 2.53824 15.4582 3.30406C16.0353 4.06705 16.4466 4.90069 16.6923 5.79932C16.938 6.69796 17.0837 7.54572 17.1322 8.34545L17.8692 19.1912H13.4557V8.45566C13.4557 7.80005 13.3443 7.24335 13.1244 6.78273C12.9015 6.31929 12.6102 5.93214 12.2416 5.61846C11.8731 5.30196 11.4446 5.07024 10.9533 4.92612C10.462 4.782 9.94776 4.7057 9.40786 4.7057C8.86795 4.7057 8.35375 4.77917 7.86241 4.92612C7.37107 5.07024 6.94257 5.30196 6.57406 5.61846C6.20556 5.93214 5.91132 6.31929 5.69136 6.78273C5.4714 7.24618 5.35999 7.80288 5.35999 8.45566V19.1912H0.946472V8.34545C0.946472 7.54572 1.09787 6.69513 1.40354 5.79932C1.71205 4.90069 2.20625 4.06987 2.8947 3.30406C3.5803 2.54107 4.45729 1.90807 5.52282 1.41071C6.5912 0.916178 7.88526 0.664673 9.405 0.664673H9.40786ZM21.9171 0.664673C23.4368 0.664673 24.7309 0.916178 25.7964 1.41071C26.8648 1.90807 27.739 2.53824 28.4274 3.30406C29.113 4.06705 29.6101 4.90069 29.9157 5.79932C30.2242 6.69796 30.3756 7.54572 30.3756 8.34545V19.1912H25.9593V8.45566C25.9593 7.80005 25.8507 7.24335 25.6307 6.78273C25.4108 6.32211 25.1166 5.93214 24.748 5.61846C24.3795 5.30196 23.951 5.07024 23.4597 4.92612C22.9684 4.782 22.4542 4.7057 21.9143 4.7057C21.3743 4.7057 20.8573 4.77917 20.3688 4.92612C19.8775 5.07024 19.449 5.30196 19.0805 5.61846C18.712 5.93214 18.4149 6.31929 18.1978 6.78273C17.9749 7.24618 17.8664 7.80288 17.8664 8.45566V19.1912H13.4529L14.187 8.34545C14.2384 7.54572 14.3841 6.69513 14.6298 5.79932C14.8755 4.90069 15.2868 4.06987 15.861 3.30406C16.4381 2.54107 17.2122 1.90807 18.1806 1.41071C19.149 0.916178 20.3945 0.664673 21.9143 0.664673H21.9171Z" fill="#33C173"/>
</svg>
